<svg xmlns="http://www.w3.org/2000/svg" xmlns:xlink="http://www.w3.org/1999/xlink" viewBox="0,0,256,256" width="50px"
    height="50px">
    <g fill="#111" fill-rule="nonzero" stroke="none" stroke-width="1" stroke-linecap="butt" stroke-linejoin="miter"
        stroke-miterlimit="10" stroke-dasharray="" stroke-dashoffset="0" font-family="none" font-weight="none"
        font-size="none" text-anchor="none" style="mix-blend-mode: normal">
        <g transform="scale(5.12,5.12)">
            <path
                d="M11.99805,3.63477l-0.5,0.29102l-2,1.16016l-0.49805,0.28711v0.57617v26.56055v0.57813l0.5,0.28906l25,14.42969l0.5,0.28711l0.5,-0.28711l6,-3.46094l0.5,-0.28906v-0.57617v-13.86133v-0.57617l-0.5,-0.28906l-3.5,-2.02148v-7.50195v-0.57812l-0.5,-0.28906l-25,-14.43945zM12,5.07813l24.5,14.15234l-1.5,0.86133l-24.50195,-14.14258zM10.25,6.38281l24.5,14.14258v25.98242l-24.5,-14.14258zM12.98047,10.89453c-0.13039,0.01023 -0.23086,0.11921 -0.23047,0.25v2.30859c-0.0001,0.08942 0.04756,0.17208 0.125,0.2168l19,10.96875c0.0771,0.0445 0.17203,0.04465 0.24927,0.0004c0.07724,-0.04425 0.12512,-0.12623 0.12573,-0.21524v-2.31055c0.0001,-0.08942 -0.04756,-0.17208 -0.125,-0.2168l-19,-10.96875c-0.04371,-0.02543 -0.0941,-0.03701 -0.14453,-0.0332zM13.25,11.57813l18.5,10.67969v1.73242l-18.5,-10.68164zM12.98047,16.66797c-0.13039,0.01023 -0.23086,0.11921 -0.23047,0.25v2.30859c-0.0001,0.08942 0.04756,0.17208 0.125,0.2168l19,10.96875c0.0774,0.04467 0.17275,0.04463 0.25011,-0.00009c0.07736,-0.04473 0.12498,-0.12734 0.12489,-0.2167v-2.30859c0.0001,-0.08942 -0.04756,-0.17208 -0.125,-0.2168l-19,-10.96875c-0.04371,-0.02543 -0.0941,-0.03701 -0.14453,-0.0332zM13.25,17.34961l18.5,10.68164v1.73242l-18.5,-10.68164zM36.75,19.66406v7.64648v16.16406c-0.00009,0.08936 0.04752,0.17198 0.12489,0.2167c0.07736,0.04473 0.17272,0.04476 0.25011,0.00009l2,-1.1543c0.07744,-0.04471 0.1251,-0.12738 0.125,-0.2168v-11.40234l1.5,-0.86523v13.2832l-5.5,3.17187v-25.98242zM12.98047,22.44141c-0.13039,0.01023 -0.23086,0.11921 -0.23047,0.25v8.08203c-0.0001,0.08942 0.04756,0.17208 0.125,0.2168l7,4.04102c0.0774,0.04467 0.17275,0.04463 0.25011,-0.00009c0.07736,-0.04473 0.12498,-0.12734 0.12489,-0.2167v-8.08203c0.0001,-0.08942 -0.04756,-0.17208 -0.125,-0.2168l-7,-4.04102c-0.04371,-0.02543 -0.0941,-0.03701 -0.14453,-0.0332zM13.25,23.125l6.5,3.75195v7.50391l-6.5,-3.75195zM37.25,27.74414l3.25,1.875l-1.5,0.86523l-1.75,-1.00977zM22.98047,28.21484c-0.13039,0.01023 -0.23086,0.11921 -0.23047,0.25v2.30859c-0.0001,0.08942 0.04756,0.17208 0.125,0.2168l9,5.19531c0.0771,0.0445 0.17203,0.04465 0.24927,0.0004c0.07724,-0.04425 0.12512,-0.12623 0.12573,-0.21524v-2.31055c0.0001,-0.08942 -0.04756,-0.17208 -0.125,-0.2168l-9,-5.19531c-0.04371,-0.02543 -0.0941,-0.03701 -0.14453,-0.0332zM23.25,28.89648l8.5,4.9082v1.73242l-8.5,-4.9082zM37.25,30.05273l1.5,0.86523v10.96875l-1.5,-0.86523zM22.98047,33.98828c-0.13039,0.01023 -0.23086,0.11921 -0.23047,0.25v2.30859c-0.0001,0.08942 0.04756,0.17208 0.125,0.2168l9,5.19531c0.0774,0.04467 0.17275,0.04463 0.25011,-0.00009c0.07736,-0.04473 0.12498,-0.12734 0.12489,-0.2167v-2.30859c0.0001,-0.08942 -0.04756,-0.17208 -0.125,-0.2168l-9,-5.19531c-0.04371,-0.02543 -0.0941,-0.03701 -0.14453,-0.0332zM23.25,34.67188l8.5,4.90625v1.73242l-8.5,-4.9082zM37.25,41.59961l1.25,0.7207l-1.25,0.7207zM38.75,42.07227v0.10352l-0.08984,0.05078z">
            </path>
        </g>
    </g>
</svg>